<svg t="1705231739781" class="icon" viewBox="0 0 1024 1024" version="1.1" xmlns="http://www.w3.org/2000/svg" p-id="15679" ><path d="M885.333333 938.666667h-138.666666a21.333333 21.333333 0 0 1 0-42.666667h138.666666a10.666667 10.666667 0 0 0 10.666667-10.666667v-138.666666a21.333333 21.333333 0 0 1 42.666667 0v138.666666a53.393333 53.393333 0 0 1-53.333334 53.333334z m-608 0H138.666667a53.393333 53.393333 0 0 1-53.333334-53.333334v-138.666666a21.333333 21.333333 0 0 1 42.666667 0v138.666666a10.666667 10.666667 0 0 0 10.666667 10.666667h138.666666a21.333333 21.333333 0 0 1 0 42.666667z m640-640a21.333333 21.333333 0 0 1-21.333333-21.333334V138.666667a10.666667 10.666667 0 0 0-10.666667-10.666667h-138.666666a21.333333 21.333333 0 0 1 0-42.666667h138.666666a53.393333 53.393333 0 0 1 53.333334 53.333334v138.666666a21.333333 21.333333 0 0 1-21.333334 21.333334z m-810.666666 0a21.333333 21.333333 0 0 1-21.333334-21.333334V138.666667a53.393333 53.393333 0 0 1 53.333334-53.333334h138.666666a21.333333 21.333333 0 0 1 0 42.666667H138.666667a10.666667 10.666667 0 0 0-10.666667 10.666667v138.666666a21.333333 21.333333 0 0 1-21.333333 21.333334z m448 170.666666H469.333333v85.333334h85.333334z" p-id="15680"></path></svg>