<svg t="1705227977312" class="icon" viewBox="0 0 1024 1024" version="1.1" xmlns="http://www.w3.org/2000/svg" p-id="12653"><path d="M23.257657 650.85828C10.797905 606.820386 4.124939 560.348051 4.124939 512.320294c0-151.25561 66.150474-287.042955 171.068825-380.079722l289.033282 205.338258L23.257657 650.85828zM480.442323 1019.167958c-199.022425-12.199832-367.038734-139.004613-438.894128-315.2708l273.357285-194.202662 165.536843 509.473462zM980.184163 709.389231C906.320022 884.66486 736.901787 1009.791422 537.175329 1019.54658l-100.77397-310.157349h543.782804zM835.466443 120.774449c112.635088 93.150354 184.408618 233.965192 184.408618 391.542775 0 49.745885-7.184618 97.809458-20.516225 143.240069H661.706328L835.466443 120.774449zM511.971347 4.45342c102.535076 0 197.950002 30.415669 277.775913 82.672742L680.014262 424.844162 219.086349 97.38581c82.76484-58.529928 183.805892-92.93239 292.884998-92.93239z" p-id="12654"></path></svg>