<svg t="1705212592696" class="icon" viewBox="0 0 1024 1024" version="1.1" xmlns="http://www.w3.org/2000/svg" p-id="4211"><path d="M597.333333 128a42.666667 42.666667 0 0 1 0 85.333333H256a42.666667 42.666667 0 0 0-42.368 37.674667L213.333333 256v512a42.666667 42.666667 0 0 0 37.674667 42.368L256 810.666667h341.333333a42.666667 42.666667 0 0 1 0 85.333333H256a128 128 0 0 1-128-128V256a128 128 0 0 1 128-128h341.333333z m97.92 243.413333a42.538667 42.538667 0 0 1 56.149334-3.541333l4.010666 3.541333 110.421334 110.421334a42.666667 42.666667 0 0 1 3.541333 56.32l-3.541333 4.010666-110.421334 110.421334a42.538667 42.538667 0 0 1-60.16-0.213334 42.837333 42.837333 0 0 1-3.413333-56.448l3.541333-4.053333 37.205334-37.205333H426.666667a42.666667 42.666667 0 0 1-4.992-85.034667L426.666667 469.333333h305.92l-37.418667-37.674666a42.666667 42.666667 0 0 1 0.085333-60.245334z" p-id="4212"></path></svg>