<svg t="1719408519960" class="icon" viewBox="0 0 1024 1024" version="1.1" xmlns="http://www.w3.org/2000/svg" p-id="6428"><path d="M262.468581 730.328703v-419.204657c0-31.044671 19.100939-54.932134 40.640296-54.932133h419.001455c21.539357 0 40.640296 23.887463 40.640296 54.954711v223.837721c0 2.032015 0.383825 3.996296 1.061164 5.802532l15.353001-5.802532v-223.837721c0-39.443665-25.535653-71.368876-57.054461-71.368876h-419.001455c-31.518808 0-57.05446 31.925211-57.054461 71.32372v425.413591l16.414165-6.186356z m0 0v-419.204657c0-31.044671 19.100939-54.932134 40.640296-54.932133h419.001455c21.539357 0 40.640296 23.887463 40.640296 54.954711v223.837721c0 2.032015 0.383825 3.996296 1.061164 5.802532l15.353001-5.802532v-223.837721c0-39.443665-25.535653-71.368876-57.054461-71.368876h-419.001455c-31.518808 0-57.05446 31.925211-57.054461 71.32372v425.413591l16.414165-6.186356zM960.57856 804.745601a245.444812 245.444812 0 0 0-72.836442-39.17273 8.218371 8.218371 0 0 0-5.215505 15.556203 228.262998 228.262998 0 0 1 67.959607 36.553688 8.218371 8.218371 0 0 0 10.09234-12.937161z m-448.57856 16.436742a210.607047 210.607047 0 0 0-109.886846 30.751158 245.3545 245.3545 0 0 0-197.128015-99.026856 244.406227 244.406227 0 0 0-152.649468 53.171055 8.218371 8.218371 0 0 0 10.182652 12.846849 228.172686 228.172686 0 0 1 142.444238-49.626317c75.952198 0 145.627729 37.208449 188.277462 98.394673a8.173215 8.173215 0 0 0 11.243815 2.144904 194.170305 194.170305 0 0 1 107.493584-32.241302c36.237598 0 70.985051 9.889139 101.28465 28.31274a8.218371 8.218371 0 0 0 10.882568-2.167482 231.085241 231.085241 0 0 1 47.774926-48.497421 8.218371 8.218371 0 0 0-9.866561-13.117784 246.776911 246.776911 0 0 0-46.691185 45.991269 210.403845 210.403845 0 0 0-103.36182-26.935486zM855.929797 851.256163a90.831062 90.831062 0 0 0-129.281299 28.944922 8.173215 8.173215 0 1 0 14.111214 8.331261 74.213697 74.213697 0 0 1 37.411651-31.631698 74.371742 74.371742 0 0 1 68.546633 7.924858 8.173215 8.173215 0 0 0 11.379283-2.19006 8.128059 8.128059 0 0 0-2.167482-11.379283zM174.14367 243.209596c1.873969 1.693346 2.032015 4.560744 0.338669 6.434713M129.213564 458.422543l-19.146095 21.245843a2.754509 2.754509 0 0 1-3.928562 0.203202 2.754509 2.754509 0 0 1-0.203201-3.928562l19.146095-21.245844a2.754509 2.754509 0 0 1 3.928562-0.203201 2.754509 2.754509 0 0 1 0.203201 3.928562zM153.823522 458.422543l-19.146096 21.245843a2.754509 2.754509 0 0 1-3.928562 0.203202 2.754509 2.754509 0 0 1-0.203201-3.928562l19.146095-21.245844a2.754509 2.754509 0 0 1 3.928562-0.203201 2.754509 2.754509 0 0 1 0.203202 3.928562zM812.557569 139.147859l-39.285619 43.643163a6.096044 6.096044 0 0 1-8.579619 0.451559 6.096044 6.096044 0 0 1-0.451558-8.579619l39.285619-43.643162a6.096044 6.096044 0 0 1 8.579618-0.451559 6.096044 6.096044 0 0 1 0.451559 8.579618zM864.486837 139.147859l-39.28562 43.643163a6.096044 6.096044 0 0 1-8.579618 0.451559 6.096044 6.096044 0 0 1-0.451559-8.579619l39.28562-43.643162a6.096044 6.096044 0 0 1 8.579618-0.451559c2.506152 2.235216 2.709353 6.073467 0.451559 8.579618z" p-id="6429"></path><path d="M382.763858 449.413944a32.828328 32.828328 0 1 1 0.022578-65.634079 32.828328 32.828328 0 0 1-0.022578 65.634079z m-8.195793-32.805751a10.927724 10.927724 0 1 0 0-21.878026 10.927724 10.927724 0 0 0 0 21.878026zM653.428231 449.413944a32.828328 32.828328 0 1 1 0.022578-65.634079 32.828328 32.828328 0 0 1-0.022578 65.634079z m-8.218371-32.805751a10.927724 10.927724 0 1 0 0-21.878026 10.927724 10.927724 0 0 0 0 21.878026z" p-id="6430"></path><path d="M591.745293 513.76108a8.150637 8.150637 0 0 1-5.870265-2.483574c-12.124355-12.463024-24.113242-18.446179-35.831195-17.859153-11.62764 0.609604-21.358734 7.924858-26.596816 14.585351a8.195793 8.195793 0 0 1-12.666226 0.270936c-14.427305-16.775411-26.912907-16.391586-37.208449-13.817701-8.331261 2.077171-16.797989 6.976584-25.151828 14.540195a8.195793 8.195793 0 0 1-11.018036-12.146933c10.385854-9.392424 21.200688-15.556202 32.173568-18.288134 17.904308-4.470433 33.483089-0.383825 47.391101 12.50818 6.615337-6.005733 17.565639-13.253252 32.218724-14.020902 16.594788-0.88054 32.873484 6.818539 48.429687 22.803722a8.195793 8.195793 0 0 1-5.870265 13.908013z" p-id="6431"></path><path d="M764.150461 802.081404a118.918023 118.918023 0 1 1 0-237.836045 118.918023 118.918023 0 0 1 0 237.836045z m-58.792962-133.954932a16.414164 16.414164 0 0 0 0 32.828328h120.295277a16.414164 16.414164 0 0 0 0-32.828328h-120.295277z" p-id="6432"></path></svg>