<svg t="1705227657691" class="icon" viewBox="0 0 1024 1024" version="1.1" xmlns="http://www.w3.org/2000/svg" p-id="11359"><path d="M1024 170.666667v682.666666H0V170.666667h1024zM85.333333 256v512h853.333334V256H85.333333z m169.173334 405.333333h-68.266667V358.826667h68.266667V661.333333z m273.493333-228.266666l-60.586667 17.066666c-2.133333-14.08-13.653333-37.973333-50.346666-37.973333-25.173333 0-41.386667 15.786667-41.386667 32.426667 0 14.506667 8.96 25.173333 29.866667 29.013333l40.533333 7.68c57.6 10.666667 87.466667 47.786667 87.466667 90.88 0 47.36-39.68 95.573333-111.786667 95.573333-83.626667 0-119.466667-54.186667-123.733333-96.853333l61.866666-14.933333c2.56 27.733333 21.333333 52.053333 62.72 52.053333 26.453333 0 42.666667-12.8 42.666667-31.573333 0-15.36-12.373333-26.453333-32.426667-30.293334l-41.386666-7.68c-51.2-9.813333-82.346667-43.946667-82.346667-88.746666 0-57.173333 50.346667-97.28 108.373333-97.28 75.52 0 104.106667 45.226667 110.506667 80.64z m34.133333 77.226666c0-96 72.106667-157.866667 157.44-157.866666 84.906667 0 157.013333 61.866667 157.013334 157.866666 0 95.573333-72.106667 157.44-157.013334 157.44-85.333333 0-157.44-61.866667-157.44-157.44z m69.973334-0.426666c0 63.146667 45.226667 91.306667 87.466666 91.306666 41.813333 0 87.04-28.16 87.04-91.306666s-45.226667-91.733333-87.04-91.733334c-42.24 0-87.466667 28.586667-87.466666 91.733334z" p-id="11360"></path></svg>