<svg t="1705228149880" class="icon" viewBox="0 0 1024 1024" version="1.1" xmlns="http://www.w3.org/2000/svg" p-id="13665"><path d="M512 989.866667c-129.706667 0-221.866667-34.133333-221.866667-85.333334L273.066667 583.68V580.266667c0-10.24 6.826667-17.066667 17.066666-17.066667s17.066667 6.826667 17.066667 17.066667c3.413333 10.24 51.2 34.133333 204.8 34.133333s201.386667-23.893333 204.8-34.133333c0-10.24 6.826667-17.066667 17.066667-17.066667s17.066667 6.826667 17.066666 17.066667v3.413333l-17.066666 320.853333c0 51.2-92.16 85.333333-221.866667 85.333334zM310.613333 624.64l13.653334 279.893333c0 17.066667 64.853333 51.2 187.733333 51.2s187.733333-34.133333 187.733333-51.2l13.653334-279.893333c-37.546667 13.653333-105.813333 23.893333-201.386667 23.893333s-163.84-10.24-201.386667-23.893333z" p-id="13666"></path><path d="M733.866667 597.333333c-10.24 0-17.066667-10.24-17.066667-17.066666l17.066667-221.866667c0-10.24 10.24-17.066667 17.066666-17.066667 10.24 0 17.066667 10.24 17.066667 17.066667L750.933333 580.266667c0 10.24-6.826667 17.066667-17.066666 17.066666zM290.133333 597.333333c-10.24 0-17.066667-6.826667-17.066666-17.066666l-17.066667-221.866667c0-6.826667 6.826667-17.066667 17.066667-17.066667 6.826667 0 17.066667 6.826667 17.066666 17.066667L307.2 580.266667c0 6.826667-6.826667 17.066667-17.066667 17.066666zM512 887.466667c-10.24 0-17.066667-6.826667-17.066667-17.066667v-170.666667c0-10.24 6.826667-17.066667 17.066667-17.066666s17.066667 6.826667 17.066667 17.066666v170.666667c0 10.24-6.826667 17.066667-17.066667 17.066667zM443.733333 887.466667c-6.826667 0-13.653333-6.826667-17.066666-13.653334l-34.133334-170.666666c-3.413333-10.24 3.413333-17.066667 13.653334-20.48 10.24-3.413333 17.066667 3.413333 20.48 13.653333l34.133333 170.666667c0 10.24-3.413333 17.066667-17.066667 20.48 3.413333 0 0 0 0 0zM580.266667 887.466667s-3.413333 0 0 0c-13.653333-3.413333-17.066667-10.24-17.066667-20.48l34.133333-170.666667c3.413333-10.24 10.24-13.653333 20.48-13.653333 10.24 3.413333 13.653333 10.24 13.653334 20.48l-34.133334 170.666666c-3.413333 6.826667-10.24 13.653333-17.066666 13.653334z" p-id="13667"></path><path d="M512 375.466667c-307.2 0-307.2-30.72-307.2-51.2 0-6.826667-17.066667-197.973333-17.066667-238.933334 0-10.24 6.826667-17.066667 17.066667-17.066666 40.96 0 75.093333 37.546667 102.4 68.266666 10.24 10.24 23.893333 27.306667 30.72 30.72 3.413333-6.826667 6.826667-17.066667 6.826667-23.893333C361.813333 95.573333 385.706667 0 512 0s150.186667 95.573333 167.253333 143.36c0 10.24 3.413333 20.48 6.826667 27.306667 6.826667-6.826667 23.893333-23.893333 30.72-34.133334 27.306667-30.72 61.44-68.266667 102.4-68.266666 10.24 0 17.066667 6.826667 17.066667 17.066666 0 40.96-17.066667 225.28-17.066667 238.933334 0 20.48-3.413333 51.2-307.2 51.2zM238.933333 320.853333c6.826667 3.413333 54.613333 20.48 273.066667 20.48s266.24-17.066667 273.066667-20.48c3.413333-23.893333 13.653333-153.6 17.066666-211.626666-20.48 10.24-40.96 34.133333-58.026666 51.2-23.893333 23.893333-40.96 44.373333-61.44 44.373333-23.893333 0-30.72-23.893333-37.546667-51.2C631.466667 102.4 610.986667 34.133333 512 34.133333s-119.466667 68.266667-133.12 119.466667c-6.826667 27.306667-13.653333 51.2-37.546667 51.2-20.48 0-37.546667-20.48-61.44-44.373333-17.066667-20.48-37.546667-44.373333-58.026666-54.613334 3.413333 61.44 13.653333 191.146667 17.066666 215.04zM512 1024c-146.773333 0-153.6-61.44-153.6-68.266667 0-10.24 6.826667-17.066667 17.066667-17.066666s17.066667 6.826667 17.066666 17.066666c3.413333 10.24 27.306667 34.133333 119.466667 34.133334s119.466667-27.306667 119.466667-37.546667c0-10.24 10.24-17.066667 17.066666-17.066667 10.24 0 17.066667 10.24 17.066667 17.066667 0 10.24-6.826667 71.68-153.6 71.68zM648.533333 546.133333h-273.066666c-10.24 0-17.066667-6.826667-17.066667-17.066666v-68.266667c0-10.24 6.826667-17.066667 17.066667-17.066667h273.066666c10.24 0 17.066667 6.826667 17.066667 17.066667v68.266667c0 10.24-6.826667 17.066667-17.066667 17.066666z m-256-34.133333h238.933334v-34.133333h-238.933334v34.133333z" p-id="13668"></path></svg>